<?xml version="1.0" standalone="no"?>
<!DOCTYPE svg PUBLIC "-//W3C//DTD SVG 20010904//EN"
 "http://www.w3.org/TR/2001/REC-SVG-20010904/DTD/svg10.dtd">
<svg version="1.0" xmlns="http://www.w3.org/2000/svg"
 width="565.000000pt" height="565.000000pt" viewBox="0 0 565.000000 565.000000"
 preserveAspectRatio="xMidYMid meet">
<metadata>
Created by potrace 1.11, written by Peter Selinger 2001-2013
</metadata>
<g transform="translate(0.000000,565.000000) scale(0.100000,-0.100000)"
fill="#000000" stroke="none">
<path d="M1040 4597 c-90 -31 -156 -71 -217 -135 -83 -86 -131 -186 -147 -307
-11 -79 -36 -252 -50 -345 -9 -52 -17 -111 -20 -130 -2 -19 -7 -53 -11 -75 -3
-22 -13 -83 -21 -135 -8 -52 -17 -106 -19 -120 -2 -14 -11 -74 -20 -135 -9
-60 -18 -121 -20 -135 -6 -37 -23 -149 -30 -195 -3 -23 -7 -52 -10 -65 -2 -13
-7 -46 -10 -74 -3 -28 -8 -58 -10 -66 -2 -8 -7 -35 -10 -60 -3 -25 -8 -56 -10
-70 -3 -14 -7 -43 -10 -65 -2 -22 -7 -51 -10 -65 -3 -14 -8 -45 -10 -70 -3
-25 -7 -56 -10 -70 -2 -14 -7 -41 -10 -60 -3 -19 -7 -46 -10 -60 -2 -14 -7
-43 -10 -65 -3 -22 -12 -80 -20 -130 -7 -49 -17 -110 -20 -135 -3 -25 -8 -52
-10 -60 -2 -8 -6 -37 -9 -65 -6 -52 -17 -123 -41 -266 -25 -154 -7 -263 61
-384 53 -94 120 -157 221 -209 203 -102 475 -49 623 122 87 100 125 216 155
462 3 30 8 62 10 70 4 13 7 34 20 127 6 43 15 105 20 133 5 25 8 50 19 125 3
22 15 96 25 165 11 69 22 141 25 160 9 69 28 195 32 215 2 11 7 40 10 65 3 25
7 52 9 60 1 8 6 40 11 70 4 30 8 57 9 60 1 5 18 130 19 142 1 3 4 9 7 12 6 7
27 -18 657 -794 217 -267 406 -496 421 -509 130 -116 312 -165 474 -127 131
31 221 93 330 228 42 51 83 102 94 113 10 11 140 166 289 345 423 507 497 595
504 598 3 1 13 -19 22 -45 9 -27 59 -174 113 -328 53 -154 114 -331 135 -393
68 -198 119 -288 215 -386 354 -357 840 -152 849 358 3 148 -2 168 -164 636
-51 146 -98 283 -105 305 -7 22 -52 153 -100 290 -48 138 -111 322 -141 410
-31 88 -67 192 -80 230 -14 39 -34 98 -45 131 -28 91 -66 152 -135 222 -128
128 -312 179 -492 137 -128 -30 -209 -88 -323 -228 -46 -56 -88 -106 -95 -112
-6 -5 -78 -91 -160 -190 -82 -99 -151 -182 -154 -185 -3 -3 -70 -84 -150 -180
-80 -96 -147 -177 -150 -180 -4 -3 -88 -103 -187 -222 l-181 -217 -39 47 c-22
26 -61 74 -88 107 -63 79 -101 126 -166 205 -30 36 -145 178 -257 315 -112
138 -211 259 -220 270 -9 11 -96 117 -192 235 -96 118 -179 220 -185 226 -5 7
-62 77 -125 155 -63 79 -135 163 -159 186 -52 49 -133 94 -210 117 -82 24
-220 21 -301 -7z"/>
</g>
</svg>
